<svg xmlns="http://www.w3.org/2000/svg"  viewBox="0 0 128 128" width="128px" height="128px"><path fill="#f8f4b2" d="M64,9C43.6,9,27.1,25.5,27.1,45.9c0,0.7,0,1.3,0.1,2c1.1,25.5,23,31.5,23,48c0,0,0,5.4,0,9.2 c0,7.6,6.2,13.8,13.8,13.8c7.6,0,13.8-6.2,13.8-13.8c0-3.8,0-9.2,0-9.2c0-16.5,21.9-22.6,23-48c0-0.6,0.1-1.3,0.1-2 C100.9,25.5,84.4,9,64,9"/><path fill="#fff" d="M77.8,105.2c0,7.6-6.2,13.8-13.8,13.8c-7.6,0-13.8-6.2-13.8-13.8c0-3.8,0-9.2,0-9.2h27.7 C77.8,95.9,77.8,97.5,77.8,105.2"/><path fill="#e0dda2" d="M77.8,104.9c0,0.1,0,0.2,0,0.2c0,0,0,0,0,0C77.8,105,77.8,104.9,77.8,104.9 M64,9L64,9 c-2.6,0-5.1,0.3-7.5,0.8C73.3,13.3,85.9,28.1,85.9,46c0,0.7,0,1.3-0.1,2c-1.1,25.5-17,31.5-17,48l0,0h9c0-0.1,0-0.1,0-0.1 c0-16.5,21.9-22.6,23-48c0-0.6,0.1-1.3,0.1-2c0-20.3-16.3-36.7-36.5-36.9C64.3,9,64.1,9,64,9"/><path fill="#e7e7e7" d="M77.8,96L77.8,96h-9c0,0,0,5.4,0,9.2c0,4.9-2.5,9.2-6.3,11.6c2.2,1.4-1.2,2.2,1.4,2.2 c0,0,0.1,0,0.1,0c0,0,0,0,0,0c7.6,0,13.8-6.2,13.8-13.8c0,0,0-0.1,0-0.1c0-0.1,0-0.2,0-0.2l0,0C77.8,101.1,77.8,96,77.8,96"/><path fill="#fff" d="M39.1 38.7c-.4 0-.8-.1-1.1-.2-1.5-.6-2.3-2.4-1.6-3.9C41 23.3 51.8 16 64 16c1.7 0 3 1.3 3 3s-1.3 3-3 3c-9.7 0-18.4 5.8-22.1 14.8C41.4 38 40.3 38.7 39.1 38.7zM37.1 48.9c-1.7 0-3-1.3-3-3v-.4c0-1.6 1.4-3 3-3l0 0c1.7 0 3 1.4 3 3v.3C40.1 47.6 38.7 48.9 37.1 48.9z"/><path fill="#464c55" d="M64,6C42,6,24.1,23.9,24,45.9c0,0.7,0.1,1.4,0.1,2.1c0.7,15,8.2,23.9,14.3,31.2 c4.9,5.8,8.8,10.4,8.8,16.8v9.2c0,9.2,7.5,16.8,16.8,16.8s16.8-7.6,16.8-16.9v-8.5c0.1-0.2,0.1-0.5,0.1-0.7s0-0.5-0.1-0.7 c0.3-6,4-10.5,8.8-16.1c6-7.2,13.6-16.2,14.2-31.1c0.1-0.7,0.1-1.4,0.1-2.1C103.9,23.9,86,6,64,6z M63.9,115.9 c-5.9,0-10.8-4.8-10.8-10.8v-6.2h21.6v6.2C74.7,111,69.8,115.9,63.9,115.9z M97.7,47.7C97.2,60.6,90.9,68,84.9,75.2 c-4.6,5.5-9,10.7-10,17.7h-22c-1-7-5.3-12.2-10-17.7c-6-7.2-12.3-14.6-12.8-27.5c0-0.6,0-1.2,0-1.8C30.1,27.2,45.3,12,64,12 s33.9,15.2,33.7,33.9C97.7,46.5,97.7,47.1,97.7,47.7z"/><path fill="#464c55" d="M64,78.9c-1.7,0-3-1.3-3-3V64c0-0.8,0.3-1.6,0.9-2.1l5-5c1.2-1.2,3.1-1.2,4.2,0 c1.2,1.2,1.2,3.1,0,4.2L67,65.2v10.7C67,77.6,65.7,78.9,64,78.9z"/></svg>